<svg width="32" height="32" viewBox="0 0 32 32" fill="none" xmlns="http://www.w3.org/2000/svg">
<path d="M0.75 15.75C0.75 7.46573 7.46573 0.75 15.75 0.75C24.0343 0.75 30.75 7.46573 30.75 15.75C30.75 24.0343 24.0343 30.75 15.75 30.75C7.46573 30.75 0.75 24.0343 0.75 15.75Z" fill="white"/>
<path d="M6.55786 15.75H24.9426M15.75 6.55762V24.9424M15.75 30.75C7.46573 30.75 0.75 24.0343 0.75 15.75C0.75 7.46573 7.46573 0.75 15.75 0.75C24.0343 0.75 30.75 7.46573 30.75 15.75C30.75 24.0343 24.0343 30.75 15.75 30.75Z" stroke="#104E47" stroke-width="1.5" stroke-linecap="round"/>
</svg>
